<svg id="Layer_1" data-name="Layer 1" xmlns="http://www.w3.org/2000/svg" viewBox="0 0 349.11 126.08"><defs><style>.cls-1{fill:#e6e6e6;}.cls-2,.cls-4{opacity:0.5;fill:#3a3a3a;}.cls-2,.cls-3{font-size:30px;}.cls-2,.cls-3,.cls-4{font-family:Arial-Black, Arial;font-weight:800;}.cls-4{font-size:29.67px;}</style></defs><rect class="cls-1" x="37.11" y="1" width="58" height="58" rx="2.7"/><path d="M115.3,14.25A1.7,1.7,0,0,1,117,16v52.6a1.7,1.7,0,0,1-1.7,1.7H62.7a1.7,1.7,0,0,1-1.7-1.7V16a1.7,1.7,0,0,1,1.7-1.7h52.6m0-2H62.7A3.7,3.7,0,0,0,59,16v52.6a3.7,3.7,0,0,0,3.7,3.7h52.6a3.7,3.7,0,0,0,3.7-3.7V16a3.7,3.7,0,0,0-3.7-3.7Z" transform="translate(-22.89 -12.25)"/><rect class="cls-1" x="108.11" y="1" width="58" height="58" rx="2.7"/><path d="M186.3,14.25A1.7,1.7,0,0,1,188,16v52.6a1.7,1.7,0,0,1-1.7,1.7H133.7a1.7,1.7,0,0,1-1.7-1.7V16a1.7,1.7,0,0,1,1.7-1.7h52.6m0-2H133.7A3.7,3.7,0,0,0,130,16v52.6a3.7,3.7,0,0,0,3.7,3.7h52.6a3.7,3.7,0,0,0,3.7-3.7V16a3.7,3.7,0,0,0-3.7-3.7Z" transform="translate(-22.89 -12.25)"/><rect class="cls-1" x="180.11" y="1" width="58" height="58" rx="2.7"/><path d="M258.3,14.25A1.7,1.7,0,0,1,260,16v52.6a1.7,1.7,0,0,1-1.7,1.7H205.7a1.7,1.7,0,0,1-1.7-1.7V16a1.7,1.7,0,0,1,1.7-1.7h52.6m0-2H205.7A3.7,3.7,0,0,0,202,16v52.6a3.7,3.7,0,0,0,3.7,3.7h52.6a3.7,3.7,0,0,0,3.7-3.7V16a3.7,3.7,0,0,0-3.7-3.7Z" transform="translate(-22.89 -12.25)"/><rect class="cls-1" x="254.11" y="1" width="58" height="58" rx="2.7"/><path d="M332.3,14.25A1.7,1.7,0,0,1,334,16v52.6a1.7,1.7,0,0,1-1.7,1.7H279.7a1.7,1.7,0,0,1-1.7-1.7V16a1.7,1.7,0,0,1,1.7-1.7h52.6m0-2H279.7A3.7,3.7,0,0,0,276,16v52.6a3.7,3.7,0,0,0,3.7,3.7h52.6a3.7,3.7,0,0,0,3.7-3.7V16a3.7,3.7,0,0,0-3.7-3.7Z" transform="translate(-22.89 -12.25)"/><rect class="cls-1" x="1" y="67.08" width="58" height="58" rx="2.7"/><path d="M79.19,80.33a1.7,1.7,0,0,1,1.7,1.7v52.6a1.7,1.7,0,0,1-1.7,1.7H26.59a1.7,1.7,0,0,1-1.7-1.7V82a1.7,1.7,0,0,1,1.7-1.7h52.6m0-2H26.59a3.7,3.7,0,0,0-3.7,3.7v52.6a3.7,3.7,0,0,0,3.7,3.7h52.6a3.7,3.7,0,0,0,3.7-3.7V82a3.7,3.7,0,0,0-3.7-3.7Z" transform="translate(-22.89 -12.25)"/><rect class="cls-1" x="76.25" y="67.08" width="58" height="58" rx="2.7"/><path d="M154.44,80.33a1.7,1.7,0,0,1,1.7,1.7v52.6a1.7,1.7,0,0,1-1.7,1.7h-52.6a1.7,1.7,0,0,1-1.7-1.7V82a1.7,1.7,0,0,1,1.7-1.7h52.6m0-2h-52.6a3.7,3.7,0,0,0-3.7,3.7v52.6a3.7,3.7,0,0,0,3.7,3.7h52.6a3.7,3.7,0,0,0,3.7-3.7V82a3.7,3.7,0,0,0-3.7-3.7Z" transform="translate(-22.89 -12.25)"/><rect class="cls-1" x="145.75" y="67.08" width="58" height="58" rx="2.7"/><path d="M223.94,80.33a1.7,1.7,0,0,1,1.7,1.7v52.6a1.7,1.7,0,0,1-1.7,1.7h-52.6a1.7,1.7,0,0,1-1.7-1.7V82a1.7,1.7,0,0,1,1.7-1.7h52.6m0-2h-52.6a3.7,3.7,0,0,0-3.7,3.7v52.6a3.7,3.7,0,0,0,3.7,3.7h52.6a3.7,3.7,0,0,0,3.7-3.7V82a3.7,3.7,0,0,0-3.7-3.7Z" transform="translate(-22.89 -12.25)"/><rect class="cls-1" x="217.77" y="67.08" width="58" height="58" rx="2.7"/><path d="M296,80.33a1.7,1.7,0,0,1,1.7,1.7v52.6a1.7,1.7,0,0,1-1.7,1.7h-52.6a1.7,1.7,0,0,1-1.7-1.7V82a1.7,1.7,0,0,1,1.7-1.7H296m0-2h-52.6a3.7,3.7,0,0,0-3.7,3.7v52.6a3.7,3.7,0,0,0,3.7,3.7H296a3.7,3.7,0,0,0,3.7-3.7V82a3.7,3.7,0,0,0-3.7-3.7Z" transform="translate(-22.89 -12.25)"/><rect class="cls-1" x="290.11" y="67.08" width="58" height="58" rx="2.7"/><path d="M368.3,80.33A1.7,1.7,0,0,1,370,82v52.6a1.7,1.7,0,0,1-1.7,1.7H315.7a1.7,1.7,0,0,1-1.7-1.7V82a1.7,1.7,0,0,1,1.7-1.7h52.6m0-2H315.7A3.7,3.7,0,0,0,312,82v52.6a3.7,3.7,0,0,0,3.7,3.7h52.6a3.7,3.7,0,0,0,3.7-3.7V82a3.7,3.7,0,0,0-3.7-3.7Z" transform="translate(-22.89 -12.25)"/><text class="cls-2" transform="translate(53 40.1)">W</text><text class="cls-2" transform="translate(126.5 40.1)">O</text><text class="cls-3" transform="translate(51.09 38.27)">W</text><text class="cls-3" transform="translate(124.61 38.27)">O</text><text class="cls-2" transform="translate(199.33 40.1)">R</text><text class="cls-3" transform="translate(197.41 38.27)">R</text><text class="cls-2" transform="translate(272.5 40.1)">K</text><text class="cls-3" transform="translate(270.61 38.27)">K</text><text class="cls-4" transform="translate(94.11 106.2) scale(1.03 1)">O</text><text class="cls-3" transform="translate(92.76 104.35)">O</text><text class="cls-2" transform="translate(237.33 106.1)">R</text><text class="cls-3" transform="translate(235.07 104.35)">R</text><text class="cls-2" transform="translate(20.5 106.1)">H</text><text class="cls-3" transform="translate(17.51 104.35)">H</text><text class="cls-2" transform="translate(164.5 106.1)">U</text><text class="cls-3" transform="translate(162.26 104.35)">U</text><text class="cls-2" transform="translate(308.16 106.1)">S</text><text class="cls-3" transform="translate(306.73 104.35)">S</text></svg>